<?xml version="1.0" encoding="UTF-8" standalone="no"?>
<!DOCTYPE svg PUBLIC "-//W3C//DTD SVG 1.1//EN" "http://www.w3.org/Graphics/SVG/1.1/DTD/svg11.dtd">
<svg xmlns="http://www.w3.org/2000/svg" version="1.1" viewBox="0.00 0.00 2048.00 1024.00">
<path fill="#000000" d="
  M 1982.23 156.77
  L 1967.45 199.46
  Q 1966.91 201.02 1965.26 201.03
  L 1955.79 201.05
  Q 1954.39 201.06 1953.93 199.73
  Q 1946.42 178.21 1938.88 156.82
  Q 1938.12 154.66 1936.42 155.73
  A 1.50 1.50 0.0 0 0 1935.72 157.00
  L 1935.77 199.96
  A 1.07 1.07 0.0 0 1 1934.70 201.03
  L 1924.05 201.02
  Q 1922.09 201.02 1922.09 199.05
  L 1922.10 127.23
  A 1.45 1.44 89.6 0 1 1923.52 125.78
  L 1939.98 125.50
  A 2.09 2.08 80.2 0 1 1941.98 126.91
  L 1959.24 177.25
  A 1.94 1.88 -74.9 0 0 1959.56 177.83
  Q 1961.67 180.45 1962.55 177.92
  Q 1971.36 152.65 1980.17 127.04
  A 1.94 1.93 -80.5 0 1 1982.00 125.73
  L 1998.23 125.74
  A 1.50 1.49 90.0 0 1 1999.72 127.24
  L 1999.75 199.73
  A 1.31 1.30 -89.8 0 1 1998.44 201.04
  L 1987.11 201.01
  A 1.65 1.64 -90.0 0 1 1985.47 199.36
  L 1985.47 157.31
  A 1.67 1.66 -35.5 0 0 1982.23 156.77
  Z"
/>
<path fill="#000000" d="
  M 1872.36 138.96
  A 1.69 1.67 -15.7 0 0 1870.93 138.17
  L 1853.67 138.21
  A 2.19 2.18 87.9 0 1 1851.48 136.17
  L 1850.96 128.35
  Q 1850.79 125.74 1853.41 125.74
  L 1907.43 125.74
  A 2.31 2.31 0.0 0 1 1909.74 128.07
  L 1909.66 136.07
  A 2.21 2.21 0.0 0 1 1907.43 138.25
  L 1890.30 138.13
  Q 1887.72 138.12 1887.73 140.70
  L 1887.82 198.60
  A 2.43 2.43 0.0 0 1 1885.40 201.03
  L 1875.56 201.05
  Q 1872.80 201.05 1872.80 198.29
  Q 1872.86 170.58 1872.92 143.21
  C 1872.92 141.93 1872.98 139.97 1872.36 138.96
  Z"
/>
<path fill="#0f75bc" d="
  M 1602.99 492.70
  C 1624.48 492.62 1625.94 454.32 1625.99 440.25
  Q 1626.05 427.07 1625.93 414.10
  A 1.63 1.63 0.0 0 1 1627.57 412.45
  L 1681.44 412.60
  A 1.47 1.46 87.7 0 1 1682.90 413.95
  C 1686.49 459.25 1678.94 525.62 1622.35 535.24
  C 1602.99 538.53 1581.58 537.87 1563.50 529.94
  C 1528.03 514.39 1518.64 473.15 1518.13 438.00
  Q 1517.32 382.38 1518.00 326.75
  C 1518.64 274.41 1548.41 233.03 1605.00 235.98
  C 1647.69 238.20 1674.44 261.28 1681.23 303.65
  Q 1685.47 330.08 1683.01 356.16
  A 1.98 1.98 0.0 0 1 1681.03 357.95
  L 1626.67 357.72
  A 1.54 1.53 -88.7 0 1 1625.14 356.11
  C 1625.91 338.15 1630.53 285.15 1604.02 281.52
  C 1582.45 278.57 1576.04 306.56 1576.12 322.25
  Q 1576.42 387.85 1576.73 453.45
  Q 1576.79 464.94 1578.19 469.91
  C 1581.28 480.88 1590.53 492.75 1602.99 492.70
  Z"
/>
<path fill="#0f75bc" d="
  M 1795.92 483.94
  C 1797.64 479.46 1797.38 475.08 1796.92 469.67
  C 1793.48 429.41 1755.97 406.95 1729.87 382.13
  Q 1718.30 371.13 1710.42 358.54
  C 1696.25 335.89 1694.83 304.89 1704.74 280.97
  C 1723.08 236.70 1781.39 224.37 1820.33 248.45
  C 1845.27 263.88 1856.36 289.68 1855.42 318.51
  Q 1855.33 321.17 1852.75 321.50
  Q 1825.38 325.07 1798.00 328.52
  C 1793.12 329.13 1793.01 325.23 1793.46 321.51
  Q 1795.22 306.73 1790.28 293.24
  C 1787.78 286.42 1781.72 279.84 1773.74 281.00
  C 1764.40 282.35 1758.61 292.30 1757.84 301.13
  C 1755.79 324.48 1766.16 339.38 1783.56 353.22
  Q 1806.41 371.39 1825.99 393.02
  C 1843.94 412.85 1855.14 438.96 1855.36 465.87
  C 1855.53 487.23 1847.60 507.35 1830.76 520.64
  C 1808.83 537.93 1773.06 541.89 1747.54 531.09
  C 1717.36 518.33 1700.45 488.28 1698.93 456.42
  C 1698.72 451.94 1698.62 450.34 1703.59 449.47
  Q 1730.30 444.83 1756.69 440.29
  Q 1759.07 439.88 1758.95 442.30
  C 1758.23 456.63 1758.11 483.60 1773.05 491.95
  C 1782.04 496.98 1792.04 494.00 1795.92 483.94
  Z"
/>
<path fill="#0f75bc" d="
  M 1207.6678 456.7481
  A 80.09 80.09 0.0 0 1 1127.4381 536.6982
  L 1117.7981 536.6814
  A 80.09 80.09 0.0 0 1 1037.8480 456.4517
  L 1038.0922 316.5119
  A 80.09 80.09 0.0 0 1 1118.3219 236.5618
  L 1127.9619 236.5786
  A 80.09 80.09 0.0 0 1 1207.9120 316.8083
  L 1207.6678 456.7481
  Z
  M 1147.8407 306.6022
  A 24.63 24.63 0.0 0 0 1123.1249 282.0584
  L 1121.8249 282.0629
  A 24.63 24.63 0.0 0 0 1097.2810 306.7787
  L 1097.8393 466.7178
  A 24.63 24.63 0.0 0 0 1122.5551 491.2616
  L 1123.8551 491.2571
  A 24.63 24.63 0.0 0 0 1148.3990 466.5413
  L 1147.8407 306.6022
  Z"
/>
<path fill="#0f75bc" d="
  M 682.38 536.99
  C 625.49 535.50 604.88 496.06 604.18 444.75
  Q 602.84 345.50 602.72 245.75
  A 2.55 2.09 -14.6 0 1 604.22 243.70
  Q 605.29 243.21 607.25 243.20
  Q 632.00 243.10 656.75 243.11
  Q 658.95 243.11 660.26 243.48
  A 1.70 1.69 7.9 0 1 661.50 245.11
  Q 661.80 352.51 661.73 459.25
  Q 661.72 468.24 666.44 479.24
  C 670.90 489.61 681.57 493.38 692.17 492.32
  C 712.83 490.26 711.88 462.27 712.00 447.18
  C 712.51 379.79 712.52 312.40 712.79 245.01
  Q 712.80 243.84 713.96 243.70
  Q 716.48 243.40 719.75 243.38
  Q 744.12 243.22 769.25 243.18
  Q 771.72 243.18 771.73 245.65
  Q 771.94 342.75 771.51 439.50
  C 771.42 458.50 768.74 478.61 760.83 496.38
  C 746.25 529.12 715.60 537.86 682.38 536.99
  Z"
/>
<path fill="#0f75bc" d="
  M 1290.24 383.55
  A 1.90 1.84 61.8 0 0 1289.96 384.54
  L 1290.26 533.35
  A 1.26 1.12 -0.0 0 1 1289.00 534.47
  L 1240.96 534.44
  A 1.47 1.47 0.0 0 1 1239.49 532.97
  L 1239.52 246.35
  Q 1239.52 244.97 1240.90 244.97
  L 1280.96 244.96
  A 2.06 2.05 78.5 0 1 1282.85 246.22
  Q 1311.85 315.55 1340.72 384.77
  Q 1341.29 386.14 1342.26 387.57
  A 1.33 1.33 0.0 0 0 1343.99 387.99
  Q 1345.24 387.30 1345.24 385.50
  Q 1345.00 319.00 1345.23 252.50
  Q 1345.25 248.98 1345.19 246.10
  Q 1345.17 244.94 1346.33 244.94
  L 1393.68 245.07
  A 0.98 0.97 89.1 0 1 1394.65 246.02
  Q 1394.77 250.80 1394.78 255.25
  Q 1395.02 394.08 1395.09 532.61
  A 1.80 1.80 0.0 0 1 1393.29 534.41
  L 1354.70 534.52
  A 2.23 2.23 0.0 0 1 1352.61 533.11
  Q 1323.36 459.45 1294.00 385.50
  Q 1293.52 384.29 1292.67 383.33
  Q 1291.32 381.80 1290.24 383.55
  Z"
/>
<rect fill="#0f75bc" x="1427.22" y="244.98" width="58.16" height="289.48" rx="1.89"/>
<path fill="#0f75bc" d="
  M 909.08 427.12
  Q 909.75 427.10 910.00 425.64
  Q 925.26 336.94 940.69 247.74
  Q 941.16 245.01 943.93 245.00
  Q 974.24 244.92 1004.50 245.01
  C 1009.62 245.02 1009.06 247.61 1009.06 251.50
  Q 1009.14 391.37 1009.14 533.38
  Q 1009.14 534.31 1008.21 534.31
  L 967.07 534.46
  A 1.08 1.08 0.0 0 1 965.99 533.38
  C 966.11 478.10 965.93 422.91 963.99 367.75
  Q 963.75 360.86 963.09 353.82
  A 0.47 0.47 0.0 0 0 962.26 353.56
  Q 961.47 354.50 961.22 355.99
  Q 946.67 442.49 932.19 529.00
  Q 931.79 531.38 931.28 533.27
  A 1.60 1.59 7.6 0 1 929.74 534.44
  L 889.00 534.42
  A 2.57 2.56 -4.8 0 1 886.47 532.29
  L 854.76 348.25
  A 1.86 1.82 -75.9 0 0 854.11 347.14
  Q 853.25 346.44 852.56 347.03
  Q 852.16 347.37 852.08 348.09
  Q 851.88 349.67 851.87 351.25
  Q 851.18 441.67 850.51 532.64
  Q 850.50 533.69 849.57 534.17
  Q 848.92 534.51 847.50 534.51
  Q 827.23 534.57 807.19 534.18
  A 0.47 0.47 0.0 0 1 806.73 533.71
  L 806.74 247.01
  Q 806.74 245.49 808.25 245.40
  Q 811.42 245.20 815.50 245.16
  Q 845.12 244.87 875.26 245.01
  Q 877.63 245.02 877.99 247.35
  Q 883.41 281.97 889.31 316.39
  C 895.59 353.08 899.78 389.86 908.01 426.29
  Q 908.20 427.15 909.08 427.12
  Z"
/>
<path fill="#000000" d="
  M 94.37 288.00
  C 94.37 284.15 93.32 283.19 89.50 283.25
  Q 78.40 283.44 47.25 283.57
  Q 43.45 283.58 43.40 280.01
  Q 43.20 266.10 43.60 251.93
  A 2.08 2.08 0.0 0 1 45.56 249.91
  Q 49.15 249.70 53.00 249.68
  Q 118.81 249.50 184.61 249.63
  Q 185.95 249.64 187.09 250.21
  Q 187.58 250.45 187.71 250.99
  Q 188.12 252.81 188.14 255.25
  Q 188.27 267.78 188.36 280.10
  Q 188.39 283.76 184.74 283.71
  L 140.82 283.15
  Q 137.25 283.10 137.25 286.68
  L 137.27 530.76
  Q 137.27 534.26 133.78 534.27
  Q 116.72 534.29 99.25 534.26
  C 97.04 534.26 94.19 534.29 94.19 531.25
  Q 94.24 409.63 94.37 288.00
  Z"
/>
<path fill="#000000" d="
  M 249.09 407.30
  Q 248.73 407.82 248.73 409.00
  Q 248.53 470.26 248.48 531.63
  A 2.52 2.52 0.0 0 1 245.97 534.15
  L 209.38 534.31
  Q 206.44 534.32 206.44 531.38
  L 206.43 252.45
  Q 206.43 249.83 209.05 249.81
  L 245.92 249.44
  A 2.20 2.18 80.3 0 1 248.02 250.94
  Q 248.42 252.14 248.42 254.25
  Q 248.57 327.15 248.50 367.75
  Q 248.50 369.49 249.11 370.86
  A 1.17 1.15 85.9 0 0 249.84 371.50
  Q 251.14 371.89 253.00 371.89
  Q 284.98 371.96 316.85 372.07
  Q 320.21 372.08 320.21 368.72
  L 320.27 251.21
  A 1.42 1.42 0.0 0 1 321.62 249.79
  C 333.85 249.15 346.31 249.47 358.77 249.64
  A 2.65 2.64 0.4 0 1 361.38 252.28
  Q 361.56 392.24 361.78 530.50
  Q 361.78 532.59 360.61 533.78
  Q 360.24 534.16 359.72 534.16
  L 323.50 534.39
  Q 320.25 534.42 320.24 531.24
  Q 320.10 470.22 320.18 410.00
  Q 320.18 408.64 319.81 407.33
  Q 319.67 406.83 319.17 406.68
  Q 316.87 405.99 314.50 406.01
  Q 282.75 406.35 251.10 406.24
  A 2.44 2.42 17.0 0 0 249.09 407.30
  Z"
/>
<path fill="#000000" d="
  M 444.28 406.53
  A 2.49 2.36 74.5 0 0 443.18 408.59
  Q 443.18 451.30 443.18 494.09
  C 443.19 495.67 442.99 497.67 443.62 499.14
  A 2.06 2.06 0.0 0 0 445.52 500.40
  L 513.59 500.41
  Q 516.52 500.41 516.50 503.34
  L 516.29 532.15
  A 2.68 2.67 0.3 0 1 513.60 534.80
  L 405.04 534.54
  Q 402.11 534.53 402.10 531.59
  Q 402.00 391.83 402.07 253.00
  Q 402.08 251.63 402.61 250.45
  A 1.00 0.98 7.6 0 1 403.37 249.88
  Q 406.20 249.51 407.25 249.51
  Q 460.18 249.53 513.61 249.82
  Q 516.32 249.84 516.32 252.54
  L 516.28 280.55
  Q 516.28 283.62 513.20 283.61
  L 445.59 283.45
  A 2.46 2.46 0.0 0 0 443.12 285.91
  L 443.24 368.99
  Q 443.24 371.92 446.18 371.92
  Q 468.73 371.91 491.00 371.92
  Q 492.72 371.92 493.85 372.32
  Q 494.38 372.50 494.56 373.04
  Q 494.97 374.33 494.98 376.00
  Q 495.03 389.88 495.03 403.56
  A 2.71 2.70 -0.1 0 1 492.32 406.27
  Q 469.13 406.23 446.50 406.07
  Q 445.02 406.06 444.28 406.53
  Z"
/>
<path fill="#000000" d="
  M 1331.3858 844.6108
  A 72.67 72.67 0.0 0 1 1258.8428 917.4076
  L 1244.8428 917.4320
  A 72.67 72.67 0.0 0 1 1172.0461 844.8889
  L 1171.7942 700.5692
  A 72.67 72.67 0.0 0 1 1244.3372 627.7724
  L 1258.3372 627.7480
  A 72.67 72.67 0.0 0 1 1331.1339 700.2911
  L 1331.3858 844.6108
  Z
  M 1289.6105 697.9967
  A 35.38 35.38 0.0 0 0 1254.2923 662.5550
  L 1248.7923 662.5454
  A 35.38 35.38 0.0 0 0 1213.3506 697.8636
  L 1213.0895 847.4433
  A 35.38 35.38 0.0 0 0 1248.4077 882.8850
  L 1253.9077 882.8946
  A 35.38 35.38 0.0 0 0 1289.3494 847.5764
  L 1289.6105 697.9967
  Z"
/>
<path fill="#000000" d="
  M 1513.54 842.75
  C 1513.69 882.09 1483.69 914.35 1444.00 914.58
  Q 1407.30 914.79 1370.96 914.82
  Q 1367.17 914.82 1367.16 911.03
  L 1366.21 633.22
  A 3.28 3.28 0.0 0 1 1369.47 629.93
  Q 1406.80 629.73 1443.00 629.90
  Q 1473.16 630.04 1493.17 650.84
  Q 1508.95 667.24 1512.17 689.79
  Q 1512.96 695.29 1513.02 709.75
  Q 1513.29 776.25 1513.54 842.75
  Z
  M 1408.66 667.11
  L 1408.30 878.99
  A 2.31 2.31 0.0 0 0 1410.60 881.31
  L 1434.43 881.35
  A 37.90 37.18 -89.9 0 0 1471.68 843.52
  L 1471.92 702.82
  A 37.90 37.18 -89.9 0 0 1434.81 664.85
  L 1410.98 664.81
  A 2.31 2.31 0.0 0 0 1408.66 667.11
  Z"
/>
<path fill="#000000" d="
  M 562.29 837.76
  L 600.65 631.90
  Q 600.91 630.50 602.34 630.49
  L 656.49 630.23
  Q 659.01 630.21 659.01 632.74
  L 659.01 913.52
  A 1.29 1.28 90.0 0 1 657.73 914.81
  L 618.00 914.79
  A 1.79 1.79 0.0 0 1 616.21 913.00
  L 616.29 710.21
  Q 616.29 708.39 614.46 708.39
  L 614.20 708.39
  A 1.31 1.30 -87.6 0 0 612.90 709.59
  Q 611.38 729.09 607.04 751.50
  Q 591.55 831.51 577.26 911.75
  C 576.92 913.68 575.92 914.70 573.84 914.73
  Q 556.68 914.96 547.25 914.72
  Q 544.50 914.64 543.96 911.76
  Q 524.89 810.71 506.66 709.51
  Q 506.40 708.08 505.18 707.94
  A 1.36 1.36 0.0 0 0 503.66 709.29
  L 504.13 912.31
  Q 504.13 914.71 501.74 914.72
  L 465.31 914.83
  Q 462.52 914.84 462.52 912.06
  L 462.52 632.66
  Q 462.52 630.58 464.59 630.58
  L 517.65 630.41
  A 2.67 2.67 0.0 0 1 520.27 632.57
  Q 538.29 726.55 555.11 820.49
  Q 556.74 829.61 560.28 837.98
  Q 561.65 841.22 562.29 837.76
  Z"
/>
<path fill="#000000" d="
  M 910.58 665.54
  Q 909.50 666.01 909.50 667.20
  L 909.60 912.85
  A 1.95 1.95 0.0 0 1 907.65 914.80
  L 869.01 914.80
  Q 866.72 914.80 866.72 912.51
  L 866.78 667.49
  Q 866.78 664.94 864.24 664.94
  L 742.84 665.12
  A 2.03 2.03 0.0 0 0 740.82 667.15
  L 740.82 750.82
  Q 740.82 753.57 743.57 753.56
  L 790.39 753.38
  Q 792.66 753.38 792.64 755.64
  L 792.46 785.50
  Q 792.44 787.97 789.97 787.95
  L 743.47 787.54
  Q 740.81 787.52 740.81 790.18
  L 740.90 878.96
  Q 740.90 881.27 743.21 881.27
  L 811.62 881.26
  Q 813.98 881.26 813.99 883.62
  L 814.02 913.04
  A 1.81 1.80 0.0 0 1 812.21 914.84
  L 702.03 914.86
  A 2.08 2.07 -90.0 0 1 699.96 912.78
  L 699.92 632.19
  A 1.89 1.89 0.0 0 1 701.81 630.30
  L 958.28 630.27
  Q 960.80 630.27 960.79 632.78
  L 960.69 662.79
  Q 960.68 664.26 959.28 664.69
  Q 958.21 665.02 956.50 665.03
  Q 935.38 665.18 914.25 664.93
  Q 912.03 664.90 910.58 665.54
  Z"
/>
<path fill="#000000" d="
  M 1095.20 788.77
  A 2.55 2.30 70.3 0 0 1093.25 787.72
  L 1025.60 787.72
  A 2.43 2.43 0.0 0 0 1023.17 790.15
  L 1023.27 912.26
  A 2.55 2.54 90.0 0 1 1020.73 914.81
  L 984.61 914.79
  A 2.69 2.69 0.0 0 1 981.92 912.10
  L 981.91 632.92
  Q 981.91 630.26 984.58 630.27
  L 1020.64 630.49
  Q 1023.27 630.51 1023.27 633.14
  L 1023.21 750.99
  A 2.54 2.54 0.0 0 0 1025.75 753.53
  L 1092.75 753.53
  Q 1095.59 753.53 1095.59 750.68
  Q 1095.51 692.63 1095.55 635.00
  Q 1095.56 633.47 1095.79 631.90
  Q 1096.02 630.38 1097.55 630.38
  L 1133.75 630.24
  Q 1136.52 630.23 1136.52 633.00
  L 1136.52 912.27
  Q 1136.52 914.81 1133.98 914.81
  L 1098.31 914.79
  Q 1095.53 914.79 1095.53 912.02
  Q 1095.52 850.94 1095.43 790.00
  Q 1095.42 789.08 1095.20 788.77
  Z"
/>
</svg>
